<svg width="145" height="32" viewBox="0 0 145 32" fill="none" xmlns="http://www.w3.org/2000/svg">
<path d="M52.8201 14.2696C52.8201 13.7451 52.3979 13.3226 51.8737 13.3226H48.678C48.1539 13.3226 47.7317 13.7451 47.7317 14.2696V15.945C47.7317 16.7172 47.9064 17.0596 49.0202 17.2344L54.1522 18.2688C57.6755 18.8297 59.2187 20.2065 59.2187 23.2587V28.0592C59.2187 30.2227 57.4644 31.9855 55.2951 31.9855H45.4678C43.3204 31.9855 41.5806 30.2445 41.5806 28.0956V24.3732H47.426V26.391C47.426 26.9155 47.8482 27.338 48.3723 27.338H52.427C52.9511 27.338 53.3733 26.9155 53.3733 26.391V24.1984C53.3733 23.4262 53.1986 23.0839 52.0848 22.909L46.9528 21.8746C43.4295 21.3137 41.8863 19.937 41.8863 16.8848V12.6306C41.8863 10.4453 43.6552 8.67512 45.839 8.67512H54.6254C56.8529 8.67512 58.6582 10.4817 58.6582 12.7107V15.9013H52.8128V14.2696H52.8201Z" fill="white"/>
<path d="M111.602 26.2235C111.602 26.748 112.024 27.1705 112.548 27.1705H116.646C117.171 27.1705 117.593 26.748 117.593 26.2235V24.4169H123.518V28.0446C123.518 30.2227 121.757 31.9855 119.58 31.9855H109.622C107.438 31.9855 105.669 30.2154 105.669 28.03V12.6306C105.669 10.4525 107.438 8.6824 109.614 8.6824H119.544C121.735 8.6824 123.518 10.4598 123.518 12.6597V21.9693H111.602V26.2308V26.2235ZM112.548 13.3008C111.944 13.3008 111.602 13.6431 111.602 14.2478V17.8099H117.593V14.2478C117.593 13.6431 117.251 13.3008 116.646 13.3008H112.548Z" fill="white"/>
<path d="M133.869 0.210529V31.8908H128.046V0.210529H133.869Z" fill="white"/>
<path d="M144.57 0.210529V31.8908H138.747V0.210529H144.57Z" fill="white"/>
<path d="M32.2552 9.08305V25.8738C32.2552 26.3692 31.8548 26.7771 31.3526 26.7771H27.5891C27.0941 26.7771 26.6864 26.3765 26.6864 25.8738V9.08305H20.9502V27.9645C20.9502 30.1353 22.7118 31.8981 24.8811 31.8981H34.0532C36.2225 31.8981 37.9842 30.1353 37.9842 27.9645V9.08305H32.2479H32.2552Z" fill="white"/>
<path d="M14.0712 14.8815C16.2187 14.4153 17.0704 12.973 17.0704 10.081V4.15144C17.0704 1.97338 15.3087 0.210529 13.1322 0.210529H0V31.8908H13.1322C15.3087 31.8908 17.0704 30.128 17.0704 27.9499V20.1482C17.0704 17.147 16.4443 15.7775 14.0712 14.8815ZM10.7518 25.6334C10.7518 26.2162 10.2786 26.6897 9.69625 26.6897H5.91821V17.5549H9.69625C10.2786 17.5549 10.7518 18.0284 10.7518 18.6112V25.6262V25.6334ZM10.7518 11.5452C10.7518 12.128 10.2786 12.6015 9.69625 12.6015H5.91821V5.32425H9.69625C10.2786 5.32425 10.7518 5.79774 10.7518 6.3805V11.5452Z" fill="white"/>
<path d="M73.173 14.1531H69.0164V31.8908H63.1929V0.210529H69.0164V9.08305H76.4269C78.6181 9.08305 80.3943 10.8605 80.3943 13.0531V31.8908H74.578V15.559C74.578 14.7795 73.9519 14.1531 73.173 14.1531Z" fill="white"/>
<path d="M94.444 14.1531H90.2801V31.8908H84.4565V9.08305H97.7488C99.9109 9.08305 101.672 10.8386 101.672 13.0094V31.8981H95.8562V15.5663C95.8562 14.7868 95.2302 14.1603 94.4513 14.1603L94.444 14.1531Z" fill="white"/>
</svg>
