<svg width="96" height="96" viewBox="0 0 96 96" fill="none" xmlns="http://www.w3.org/2000/svg">
<path d="M96 48C96 74.5097 74.5097 96 48 96C21.4903 96 0 74.5097 0 48C0 21.4903 21.4903 0 48 0C74.5097 0 96 21.4903 96 48Z" fill="black"/>
<path d="M84 48C84 67.8822 67.8822 84 48 84C28.1177 84 12 67.8822 12 48C12 28.1177 28.1177 12 48 12C67.8822 12 84 28.1177 84 48Z" fill="#FFD700"/>
<path d="M72 48C72 61.2548 61.2548 72 48 72C34.7452 72 24 61.2548 24 48C24 34.7452 34.7452 24 48 24C61.2548 24 72 34.7452 72 48Z" fill="#FF0000"/>
<path d="M60 48C60 54.6274 54.6274 60 48 60C41.3726 60 36 54.6274 36 48C36 41.3726 41.3726 36 48 36C54.6274 36 60 41.3726 60 48Z" fill="white"/>
</svg>
